<?xml version="1.0" encoding="UTF-8" standalone="no"?><!DOCTYPE svg PUBLIC "-//W3C//DTD SVG 1.1//EN" "http://www.w3.org/Graphics/SVG/1.1/DTD/svg11.dtd"><svg width="100%" height="100%" viewBox="0 0 512 512" version="1.1" xmlns="http://www.w3.org/2000/svg" xmlns:xlink="http://www.w3.org/1999/xlink" xml:space="preserve" xmlns:serif="http://www.serif.com/" style="fill-rule:evenodd;clip-rule:evenodd;stroke-linejoin:round;stroke-miterlimit:2;"><g id="_036---Pizza-Cutter" serif:id="036---Pizza-Cutter"><path id="Shape" d="M253.525,221.355c-12.713,6.59 -24.246,15.241 -34.133,25.6l-63.573,-16.555c12.604,-13.635 26.429,-26.089 41.301,-37.205l31.659,5.205l24.746,22.955Z" style="fill:#464f5d;fill-rule:nonzero;"/><circle id="Oval" cx="153.6" cy="366.933" r="136.533" style="fill:#95a5a5;"/><path id="Shape1" serif:id="Shape" d="M153.6,512c67.429,-0.02 125.954,-46.498 141.245,-112.17c15.291,-65.672 -16.685,-133.222 -77.17,-163.025c-60.485,-29.802 -133.53,-13.999 -176.288,38.139c-78.336,95.573 -8.363,237.056 112.213,237.056Zm0,-273.067c68.97,0.337 125.271,55.259 127.319,124.199c2.047,68.94 -50.895,127.106 -119.723,131.536c-68.828,4.429 -128.79,-46.472 -135.596,-115.105c-3.577,-36.077 8.312,-71.979 32.715,-98.79c24.403,-26.812 59.031,-42.017 95.285,-41.84Z" style="fill:#bdc3c7;fill-rule:nonzero;"/><circle id="Oval1" serif:id="Oval" cx="153.6" cy="366.933" r="34.133" style="fill:#bdc3c7;"/><path id="Shape2" serif:id="Shape" d="M307.2,271.104c-0.541,1.633 -2.011,2.782 -3.726,2.912c-1.716,0.131 -3.343,-0.782 -4.125,-2.315c-15.434,-28.702 -40.256,-51.235 -70.314,-63.829c-52.48,-22.699 -68.267,-33.707 -67.584,-59.221c-0.003,-1.474 0.755,-2.846 2.005,-3.627c1.25,-0.781 2.815,-0.862 4.139,-0.213c14.506,6.912 53.76,21.333 84.906,-5.974c60.843,-53.504 113.408,-96.17 184.662,-124.672c20.138,-8.106 39.85,-10.325 57.258,5.035c10.692,9.048 17.074,22.184 17.579,36.181c0.512,24.662 -21.845,37.803 -42.069,46.251c-36.779,15.445 -73.814,30.635 -109.398,48.725c-22.954,11.776 -61.866,31.403 -58.453,62.379c2.816,29.013 8.448,45.995 5.12,58.368Z" style="fill:#e64c3c;fill-rule:nonzero;"/><g><path id="Shape3" serif:id="Shape" d="M200.789,467.285c2.974,-1.167 5.046,-3.898 5.37,-7.076c0.324,-3.178 -1.153,-6.271 -3.829,-8.015c-2.676,-1.744 -6.103,-1.848 -8.879,-0.269c-19.425,9.096 -41.379,11.264 -62.208,6.144c-4.572,-1.154 -9.214,1.616 -10.368,6.187c-1.155,4.571 1.615,9.213 6.186,10.368c24.687,6.139 50.737,3.546 73.728,-7.339Z" style="fill:#bdc3c7;fill-rule:nonzero;"/><path id="Shape4" serif:id="Shape" d="M110.165,282.795c4.438,0 29.355,-16.128 65.792,-6.998c2.958,0.747 6.089,-0.14 8.214,-2.328c2.126,-2.187 2.922,-5.343 2.091,-8.277c-0.832,-2.935 -3.166,-5.202 -6.123,-5.949c-24.66,-6.119 -50.676,-3.527 -73.643,7.338c-3.572,1.73 -5.48,5.694 -4.604,9.564c0.876,3.871 4.305,6.626 8.273,6.65Z" style="fill:#bdc3c7;fill-rule:nonzero;"/><circle id="Oval2" serif:id="Oval" cx="85.248" cy="288.853" r="8.533" style="fill:#bdc3c7;"/></g></g></svg>