<?xml version="1.0" encoding="UTF-8" standalone="no"?><!DOCTYPE svg PUBLIC "-//W3C//DTD SVG 1.1//EN" "http://www.w3.org/Graphics/SVG/1.1/DTD/svg11.dtd"><svg width="100%" height="100%" viewBox="0 0 512 512" version="1.1" xmlns="http://www.w3.org/2000/svg" xmlns:xlink="http://www.w3.org/1999/xlink" xml:space="preserve" xmlns:serif="http://www.serif.com/" style="fill-rule:evenodd;clip-rule:evenodd;stroke-linejoin:round;stroke-miterlimit:2;"><g id="_036---Pizza-Cutter" serif:id="036---Pizza-Cutter"><g id="Layer_3"><path id="Shape" d="M149.068,235.016c3.335,0.001 6.669,0.169 9.988,0.504c18.037,1.634 35.548,6.947 51.452,15.612l0.503,0c9.716,-10.199 21.063,-18.708 33.574,-25.181c-7.651,-5.173 -15.773,-9.613 -24.257,-13.261c-12.422,-5.288 -22.662,-10.072 -31.14,-14.437c-14.461,11.012 -27.89,23.317 -40.12,36.763Z" style="fill:#a4c2f7;fill-rule:nonzero;"/><path id="Shape1" serif:id="Shape" d="M61.776,473.138c42.002,34.453 100.625,40.208 148.524,14.579c47.9,-25.628 75.642,-77.59 70.286,-131.651c-5.355,-54.06 -42.753,-99.569 -94.75,-115.301c-51.998,-15.732 -108.352,1.412 -142.778,43.437c-22.735,27.47 -33.547,62.887 -30.032,98.371c3.515,35.483 21.067,68.09 48.75,90.565Z" style="fill:#cad9fc;fill-rule:nonzero;"/><path id="Shape2" serif:id="Shape" d="M86.956,473.138c20.665,17.058 46.001,27.473 72.687,29.881c69.005,-6.476 121.747,-64.4 121.747,-133.708c0,-69.307 -52.742,-127.231 -121.747,-133.707c-54.148,5.183 -99.821,42.518 -115.671,94.553c-15.849,52.036 1.256,108.492 43.32,142.981l-0.336,0Z" style="fill:#e8edfc;fill-rule:nonzero;"/><circle id="Oval" cx="146.885" cy="369.311" r="33.574" style="fill:#a4c2f7;"/><path id="Shape3" serif:id="Shape" d="M154.355,154.607c-0.296,6.556 1.153,13.072 4.197,18.885c7.386,13.43 25.18,23.502 62.279,39.366c29.409,12.467 53.667,34.622 68.743,62.783c0.769,1.507 2.369,2.405 4.056,2.277c1.688,-0.129 3.133,-1.258 3.666,-2.865c3.525,-12.17 -2.015,-28.873 -4.785,-57.411c-2.937,-30.468 35.337,-49.773 57.915,-61.356c35.001,-17.794 71.428,-32.735 107.604,-47.927c19.893,-8.393 41.967,-21.235 41.38,-45.492c-0.348,-13.805 -6.653,-26.783 -17.291,-35.588c-16.283,-15.025 -35.42,-13.43 -56.32,-4.952c-70.001,28.034 -121.453,70.001 -181.886,122.628c-30.636,26.859 -69.245,12.674 -83.934,5.875c-1.258,-0.456 -2.659,-0.285 -3.77,0.462c-1.111,0.746 -1.8,1.978 -1.854,3.315Z" style="fill:#cad9fc;fill-rule:nonzero;"/><path id="Shape4" serif:id="Shape" d="M158.552,173.492c7.386,13.43 25.18,23.502 62.279,39.366c29.409,12.467 53.667,34.622 68.743,62.783c0.769,1.507 2.369,2.405 4.056,2.277c1.688,-0.129 3.133,-1.258 3.666,-2.865c3.525,-12.17 -2.015,-28.873 -4.785,-57.411c-2.937,-30.468 35.337,-49.773 57.915,-61.356c35.001,-17.794 71.428,-32.735 107.604,-47.927c19.893,-8.393 41.967,-21.235 41.38,-45.492c-0.659,-16.237 -9.216,-31.126 -22.914,-39.869c-29.299,10.45 -57.429,23.924 -83.935,40.205c-47.83,30.749 -92.979,65.481 -134.966,103.827c-35.085,30.72 -79.066,14.436 -95.434,6.714c-1.128,-0.536 -2.417,-0.626 -3.609,-0.252Z" style="fill:#e8edfc;fill-rule:nonzero;"/></g><g id="Layer_4"><path id="Shape5" serif:id="Shape" d="M134.127,503.019c54.206,-5.066 99.991,-42.356 115.921,-94.416c15.931,-52.059 -1.145,-108.586 -43.234,-143.118c-6.626,-4.937 -13.519,-9.504 -20.647,-13.682c9.716,-10.198 21.062,-18.708 33.573,-25.18c4.029,2.77 7.638,5.54 11.08,8.393c-7.041,4.991 -13.615,10.609 -19.641,16.787l-0.504,0c56.186,30.392 83.189,96.155 64.572,157.261c-18.617,61.106 -77.701,100.642 -141.288,94.543l0.168,-0.588Z" style="fill:#fff;fill-rule:nonzero;"/><path id="Shape6" serif:id="Shape" d="M458.03,108.359c-36.176,15.192 -72.603,30.133 -107.604,47.927c-22.578,11.583 -60.852,30.888 -57.495,61.356c2.77,28.538 8.394,45.241 4.784,57.411c-0.532,1.607 -1.977,2.736 -3.665,2.865c-1.688,0.128 -3.287,-0.77 -4.057,-2.277c-4.895,-9.255 -10.899,-17.88 -17.878,-25.684c-1.259,-8.813 -3.105,-19.305 -4.364,-32.315c-3.358,-30.468 34.917,-49.773 57.495,-61.356c35.001,-17.794 71.428,-32.735 107.604,-47.927c25.18,-10.491 44.821,-25.18 40.792,-51.535c-2.353,-13.848 -10.467,-26.049 -22.327,-33.574c-3.562,-2.28 -7.435,-4.032 -11.499,-5.204c12.424,-3.753 25.87,-1.85 36.764,5.204c11.86,7.525 19.973,19.726 22.326,33.574c3.945,26.607 -16.283,41.044 -40.876,51.535Z" style="fill:#fff;fill-rule:nonzero;"/></g><g id="Layer_2"><path id="Shape7" serif:id="Shape" d="M453.414,101.225l6.547,15.444c11.295,-4.26 21.793,-10.389 31.055,-18.13c5.144,-4.387 9.366,-9.75 12.423,-15.78c3.048,-6.238 4.545,-13.119 4.364,-20.06l-16.787,0c0.167,9.042 -3.901,17.642 -10.995,23.25c-7.976,6.51 -16.964,11.67 -26.607,15.276Z" style="fill:#fff;fill-rule:nonzero;"/><g><path id="Shape8" serif:id="Shape" d="M288.902,355.21c3.747,37.667 -7.626,75.279 -31.616,104.559c-23.99,29.279 -58.632,47.827 -96.3,51.56c-4.784,0 -9.568,0.671 -14.353,0.671c-76.118,0.012 -138.844,-59.727 -142.542,-135.756c-3.699,-76.028 52.933,-141.574 128.693,-148.95c4.281,0 8.394,-0.587 12.59,-0.587c9.157,-9.643 18.912,-18.698 29.21,-27.111c-19.809,-12.17 -28.79,-24.677 -28.622,-45.073c0.044,-4.313 2.292,-8.304 5.959,-10.575c3.541,-2.229 7.979,-2.483 11.751,-0.672c13.514,6.379 47.675,18.801 74.45,-4.616c37.224,-33.919 77.265,-64.609 119.69,-91.741c20.645,-12.611 42.322,-23.449 64.798,-32.398c16.787,-6.883 41.967,-13.682 65.049,6.547c1.781,1.543 3.463,3.197 5.036,4.952c9.364,9.959 14.741,23.013 15.108,36.679c0,4.636 -3.758,8.393 -8.393,8.393c-4.636,0 -8.394,-3.757 -8.394,-8.393c-0.37,-9.395 -4.126,-18.339 -10.575,-25.18c-1.259,-1.343 -2.518,-2.602 -3.945,-3.861c-12.339,-10.996 -26.524,-12.003 -47.591,-3.526c-21.586,8.605 -42.418,18.992 -62.279,31.056c-41.509,26.627 -80.704,56.698 -117.173,89.894c-30.468,26.607 -67.147,17.626 -86.284,9.82c2.098,14.437 14.101,23.754 61.02,43.982c26.764,11.288 49.66,30.13 65.888,54.222c0,-4.197 -1.175,-8.981 -2.014,-14.353c-1.175,-7.638 -2.518,-16.283 -3.525,-26.523c-3.609,-36.344 39.113,-58.083 62.111,-69.75c35.253,-17.458 71.093,-32.315 106.765,-47.255c4.242,-1.814 9.152,0.135 10.995,4.365c0.893,2.057 0.925,4.387 0.089,6.468c-0.835,2.082 -2.469,3.742 -4.537,4.611c-35.84,15.024 -71.512,29.713 -105.758,47.087c-20.732,10.492 -55.396,28.118 -52.962,53.047c1.007,9.82 2.266,18.213 3.441,25.6c2.82,11.46 3.192,23.386 1.091,35c-1.4,4.9 -5.669,8.435 -10.743,8.897l-1.26,0c-4.746,0.01 -9.095,-2.651 -11.247,-6.882c-9.163,-17.175 -22.141,-32.02 -37.938,-43.394c-6.965,3.911 -13.493,8.554 -19.473,13.849c4.197,2.77 8.394,5.791 12.255,8.981c29.357,23.948 47.914,58.644 51.535,96.356Zm-60.181,-129.175c-3.609,-1.846 -7.218,-3.777 -11.163,-5.455c-10.156,-4.365 -19.053,-8.394 -26.943,-12.255c-8.062,6.191 -15.769,12.833 -23.082,19.893c14.592,2.123 28.757,6.542 41.967,13.093c5.974,-5.615 12.403,-10.724 19.221,-15.276Zm-2.014,45.913c-22.47,-18.522 -50.702,-28.615 -79.822,-28.538c-4.196,0 -8.393,0 -12.674,0.587c-59.758,5.948 -106.998,53.273 -112.837,113.042c-5.839,59.769 31.348,115.342 88.826,132.742c57.478,17.4 119.244,-8.217 147.535,-61.189c28.291,-52.973 15.231,-118.552 -31.196,-156.644l0.168,0Z" style="fill:#428dff;fill-rule:nonzero;"/><path id="Shape9" serif:id="Shape" d="M150.998,411.279l-4.197,0c-9.669,-0.012 -19.039,-3.362 -26.523,-9.485c-15.406,-12.782 -19.641,-34.666 -10.114,-52.272c9.527,-17.606 30.163,-26.032 49.291,-20.126c19.127,5.905 31.421,24.498 29.364,44.411c-2.056,19.912 -17.89,35.6 -37.821,37.472Zm21.068,-44.486c-1.298,-12.915 -12.201,-22.727 -25.181,-22.662l-2.518,0c-13.906,1.368 -24.072,13.75 -22.704,27.657c1.367,13.906 13.75,24.071 27.656,22.704c6.568,-0.703 12.597,-3.959 16.787,-9.065c4.417,-5.154 6.566,-11.873 5.96,-18.634Z" style="fill:#428dff;fill-rule:nonzero;"/><path id="Shape10" serif:id="Shape" d="M485.645,83.934c4.635,0 8.393,3.758 8.393,8.394c0,4.635 -3.758,8.393 -8.393,8.393c-4.636,0 -8.394,-3.758 -8.394,-8.393c0,-4.636 3.758,-8.394 8.394,-8.394Z" style="fill:#428dff;fill-rule:nonzero;"/><path id="Shape11" serif:id="Shape" d="M193.301,468.018c-11.236,5.321 -23.302,8.671 -35.672,9.905c-3.581,0.335 -7.163,0.503 -10.744,0.503c-8.77,-0.005 -17.507,-1.076 -26.019,-3.189c-4.497,-1.136 -7.221,-5.702 -6.086,-10.198c1.136,-4.497 5.702,-7.221 10.198,-6.086c20.419,5.176 41.998,3.16 61.105,-5.707c2.731,-1.554 6.101,-1.452 8.733,0.264c2.632,1.716 4.086,4.758 3.767,7.884c-0.319,3.126 -2.357,5.811 -5.282,6.96l0,-0.336Z" style="fill:#428dff;fill-rule:nonzero;"/><path id="Shape12" serif:id="Shape" d="M168.876,279.67c-20.483,-5.091 -42.096,-2.957 -61.188,6.043c-1.09,0.561 -2.3,0.85 -3.525,0.839c-3.904,-0.023 -7.276,-2.733 -8.138,-6.54c-0.861,-3.808 1.015,-7.706 4.528,-9.407c11.188,-5.369 23.236,-8.722 35.589,-9.905c12.345,-1.22 24.809,-0.312 36.847,2.686c2.909,0.735 5.204,2.966 6.023,5.852c0.818,2.886 0.034,5.99 -2.057,8.142c-2.09,2.151 -5.17,3.024 -8.079,2.29Z" style="fill:#428dff;fill-rule:nonzero;"/><path id="Shape13" serif:id="Shape" d="M74.282,298.974c-3.577,-2.942 -4.095,-8.225 -1.157,-11.806c2.938,-3.58 8.22,-4.105 11.804,-1.172c3.585,2.933 4.116,8.215 1.188,11.803c-1.411,1.729 -3.453,2.825 -5.674,3.046c-2.22,0.22 -4.438,-0.453 -6.161,-1.871Z" style="fill:#428dff;fill-rule:nonzero;"/></g></g></g></svg>