<?xml version="1.0" encoding="UTF-8" standalone="no"?><!DOCTYPE svg PUBLIC "-//W3C//DTD SVG 1.1//EN" "http://www.w3.org/Graphics/SVG/1.1/DTD/svg11.dtd"><svg width="100%" height="100%" viewBox="0 0 512 512" version="1.1" xmlns="http://www.w3.org/2000/svg" xmlns:xlink="http://www.w3.org/1999/xlink" xml:space="preserve" xmlns:serif="http://www.serif.com/" style="fill-rule:evenodd;clip-rule:evenodd;stroke-linejoin:round;stroke-miterlimit:2;"><g id="_036---Pizza-Cutter" serif:id="036---Pizza-Cutter"><path id="Shape" d="M469.931,93.867c-36.779,15.445 -73.814,30.634 -109.398,48.725c-22.954,11.52 -61.866,31.317 -58.453,62.208c2.816,29.013 8.533,45.995 4.864,58.368c-0.541,1.633 -2.011,2.782 -3.726,2.912c-1.716,0.131 -3.343,-0.782 -4.125,-2.315c-10.808,-20.304 -26.46,-37.626 -45.568,-50.432c-19.285,-12.97 -30.805,-15.018 -56.32,-28.16c-27.306,-14.165 -36.096,-25.173 -35.925,-44.544c-0.003,-1.474 0.755,-2.845 2.005,-3.626c1.25,-0.782 2.815,-0.862 4.139,-0.214c14.507,6.912 53.76,21.334 84.907,-5.973c60.842,-53.077 113.578,-95.915 184.832,-124.501c20.138,-8.107 40.106,-10.582 57.258,5.034c10.788,8.973 17.192,22.155 17.579,36.182c0.512,24.661 -21.845,37.802 -42.069,46.336Z" style="fill-rule:nonzero;"/><path id="Shape1" serif:id="Shape" d="M244.907,221.355c-12.688,6.631 -24.215,15.276 -34.134,25.6c-19.566,-10.435 -41.318,-16.107 -63.488,-16.555c12.604,-13.635 26.429,-26.089 41.302,-37.205c24.746,12.97 37.12,15.274 56.32,28.16Z" style="fill-rule:nonzero;"/><path id="Shape2" serif:id="Shape" d="M152.747,355.669c8.015,6.559 11.289,17.3 8.295,27.214c-2.994,9.914 -11.667,17.047 -21.972,18.073c-10.305,1.026 -20.213,-4.259 -25.103,-13.388c-4.889,-9.129 -3.796,-20.305 2.769,-28.315c8.957,-10.928 25.075,-12.532 36.011,-3.584Z" style="fill-rule:nonzero;"/><path id="Shape3" serif:id="Shape" d="M138.752,238.933c111.872,1.707 176.981,133.462 103.339,223.062c-40.413,49.309 -109.572,64.086 -166.607,35.598c-57.036,-28.488 -86.763,-92.656 -71.615,-154.585c15.147,-61.928 71.137,-105.13 134.883,-104.075Zm-28.757,244.224c24.687,6.118 50.73,3.526 73.728,-7.338c2.973,-1.168 5.045,-3.899 5.369,-7.077c0.325,-3.178 -1.153,-6.27 -3.829,-8.015c-2.676,-1.744 -6.102,-1.848 -8.879,-0.268c-19.425,9.095 -41.379,11.263 -62.208,6.144c-4.545,-1.133 -9.153,1.609 -10.325,6.144c-0.57,2.195 -0.242,4.527 0.91,6.481c1.153,1.953 3.036,3.367 5.234,3.929Zm-16.128,-103.509c1.887,19.232 16.464,34.794 35.532,37.933c19.067,3.139 37.863,-6.929 45.816,-24.541c7.953,-17.612 3.076,-38.369 -11.887,-50.597c-13.348,-10.908 -31.949,-12.713 -47.144,-4.573c-15.196,8.139 -24.001,24.622 -22.317,41.778Zm-8.534,-93.184c0.978,2.055 2.735,3.634 4.882,4.387c2.147,0.753 4.506,0.618 6.553,-0.376c19.378,-9.157 41.327,-11.328 62.123,-6.144c2.207,0.567 4.549,0.228 6.505,-0.943c1.955,-1.17 3.362,-3.074 3.905,-5.287c1.128,-4.571 -1.66,-9.191 -6.229,-10.325c-24.654,-6.082 -50.649,-3.522 -73.643,7.253c-2.07,0.962 -3.668,2.713 -4.438,4.862c-0.769,2.148 -0.646,4.516 0.342,6.573Zm-22.528,17.067c3.648,2.977 9.018,2.437 12,-1.207c2.982,-3.644 2.449,-9.015 -1.192,-12.002c-3.64,-2.986 -9.011,-2.46 -12.002,1.177c-1.58,1.773 -2.349,4.125 -2.122,6.49c0.226,2.364 1.428,4.527 3.316,5.968l0,-0.426Z" style="fill-rule:nonzero;"/></g></svg>