<?xml version="1.0" encoding="UTF-8" standalone="no"?><!DOCTYPE svg PUBLIC "-//W3C//DTD SVG 1.1//EN" "http://www.w3.org/Graphics/SVG/1.1/DTD/svg11.dtd"><svg width="100%" height="100%" viewBox="0 0 512 512" version="1.1" xmlns="http://www.w3.org/2000/svg" xmlns:xlink="http://www.w3.org/1999/xlink" xml:space="preserve" xmlns:serif="http://www.serif.com/" style="fill-rule:evenodd;clip-rule:evenodd;stroke-linejoin:round;stroke-miterlimit:2;"><g id="_036---Pizza-Cutter" serif:id="036---Pizza-Cutter"><path id="Shape" d="M288.902,355.21c5.814,58.571 -24.934,114.702 -77.421,141.336c-52.488,26.635 -115.944,18.308 -159.783,-20.967c-43.838,-39.275 -59.062,-101.438 -38.334,-156.526c20.728,-55.088 73.155,-91.796 132.01,-92.43c9.157,-9.643 18.912,-18.698 29.21,-27.111c-19.809,-12.17 -28.79,-24.677 -28.622,-45.073c0.112,-4.202 2.315,-8.072 5.872,-10.314c3.557,-2.242 7.998,-2.56 11.838,-0.849c13.514,6.379 47.675,18.801 74.45,-4.616c61.104,-53.215 113.395,-95.434 184.488,-124.139c16.787,-6.883 41.967,-13.682 65.049,6.547c12.391,10.477 19.72,25.745 20.144,41.967c0.588,30.216 -26.271,44.989 -46.499,53.466l-9.485,3.945c-101.896,42.219 -153.852,65.301 -150.578,96.357c2.853,28.705 8.393,46.08 4.532,60.6c-1.488,4.911 -5.807,8.427 -10.917,8.888c-5.111,0.462 -9.99,-2.225 -12.333,-6.789c-9.163,-17.175 -22.141,-32.02 -37.938,-43.394c-6.965,3.911 -13.493,8.553 -19.473,13.849c36.133,23.587 59.6,62.307 63.79,105.253Zm1.175,-95.853c-0.755,-7.47 -4.028,-25.18 -5.539,-40.876c-3.609,-36.343 39.113,-58.082 62.111,-69.749c96.273,-48.934 145.039,-51.452 144.367,-85.697c-0.393,-11.448 -5.681,-22.177 -14.52,-29.461c-14.101,-12.506 -29.965,-10.576 -47.591,-3.442c-68.658,27.615 -119.187,68.491 -179.452,120.95c-30.468,26.607 -67.147,17.626 -86.284,9.82c2.098,14.437 14.101,23.754 61.02,43.982c26.797,11.356 49.697,30.289 65.888,54.473Zm-61.356,-33.573c-11.918,-6.379 -18.969,-8.394 -38.106,-17.711c-8.062,6.191 -15.769,12.833 -23.082,19.893c14.592,2.123 28.757,6.542 41.967,13.094c5.983,-5.528 12.412,-10.553 19.221,-15.025l0,-0.251Zm-94.258,17.962c-69.158,6.856 -119.68,68.453 -112.875,137.616c6.806,69.163 68.365,119.731 137.533,112.977c69.168,-6.755 119.782,-68.277 113.078,-137.45c-3.287,-33.238 -19.648,-63.808 -45.48,-84.98c-25.832,-21.173 -59.019,-31.213 -92.256,-27.912l0,-0.251Z" style="fill-rule:nonzero;"/><path id="Shape1" serif:id="Shape" d="M120.278,401.794c-14.56,-12.106 -19.21,-32.462 -11.351,-49.689c7.859,-17.227 26.28,-27.057 44.966,-23.996c18.686,3.061 33.008,18.256 34.959,37.09c1.759,16.971 -6.932,33.317 -21.985,41.35c-15.052,8.033 -33.47,6.153 -46.589,-4.755Zm51.788,-35.001c-1.45,-13.798 -13.787,-23.823 -27.59,-22.42c-13.803,1.404 -23.87,13.708 -22.512,27.515c1.357,13.807 13.627,23.915 27.439,22.604c6.692,-0.636 12.852,-3.92 17.109,-9.123c4.256,-5.202 6.256,-11.89 5.554,-18.576Z" style="fill-rule:nonzero;"/><path id="Shape2" serif:id="Shape" d="M193.301,468.018c-22.618,10.693 -48.237,13.243 -72.519,7.219c-4.497,-1.136 -7.221,-5.702 -6.086,-10.198c1.136,-4.497 5.702,-7.221 10.198,-6.086c20.45,5.141 42.043,3.127 61.189,-5.707c2.731,-1.554 6.101,-1.452 8.733,0.264c2.632,1.716 4.086,4.758 3.767,7.884c-0.319,3.126 -2.357,5.811 -5.282,6.96l0,-0.336Z" style="fill-rule:nonzero;"/><path id="Shape3" serif:id="Shape" d="M168.876,279.67c-20.487,-5.036 -42.082,-2.903 -61.188,6.043c-2.742,1.637 -6.175,1.576 -8.858,-0.158c-2.682,-1.733 -4.148,-4.838 -3.782,-8.01c0.365,-3.173 2.499,-5.863 5.505,-6.94c22.591,-10.687 48.181,-13.237 72.436,-7.219c2.909,0.735 5.204,2.966 6.023,5.852c0.818,2.886 0.034,5.99 -2.057,8.142c-2.09,2.151 -5.17,3.024 -8.079,2.29Z" style="fill-rule:nonzero;"/><path id="Shape4" serif:id="Shape" d="M74.282,298.974c-3.577,-2.942 -4.095,-8.225 -1.157,-11.806c2.938,-3.58 8.22,-4.105 11.804,-1.172c3.585,2.933 4.116,8.215 1.188,11.803c-1.411,1.729 -3.453,2.825 -5.674,3.046c-2.22,0.22 -4.438,-0.453 -6.161,-1.871Z" style="fill-rule:nonzero;"/></g></svg>