<svg xmlns="http://www.w3.org/2000/svg" width="512" height="512"><path d="M438.278 319.682v-5.101c0-12.904-10.461-23.364-23.365-23.364H309.376l22.344 150.01h114.129c14.154 0 25.629-11.474 25.629-25.629v-2.732H504.5v-93.184h-66.222z" fill="#f2a077"/>
<path d="M458.045 393.968c0 14.154-11.474 25.629-25.629 25.629H331.72l-19.122-128.38h-3.222l22.344 150.01h114.129c14.154 0 25.629-11.474 25.629-25.629v-2.732H504.5v-21.63h-46.455v2.732z" fill="#d6774d"/>
<path d="M362.354 221.739c-4.275-16.2-13.651-47.529-19.783-62.803 5.702-3.908 8.618-11.105 6.727-18.162-2.397-8.947-11.593-14.256-20.54-11.859l-33.459 8.965c-8.947 2.397-14.256 11.593-11.858 20.54 1.891 7.057 8.015 11.832 14.907 12.366 2.326 16.293 9.871 48.114 14.269 64.28-9.919 17.507-16.66 39.309-11.452 58.745l46.606 173.937c1.46 5.45 7.062 8.684 12.512 7.224l80.743-21.635c5.45-1.46 8.684-7.062 7.224-12.512l-46.606-173.937c-5.208-19.436-21.947-34.947-39.29-45.149z" fill="#75dc5e"/>
<path d="M448.25 440.824l-46.606-173.937c-5.208-19.436-21.947-34.946-39.29-45.148-4.275-16.2-13.651-47.529-19.783-62.803 5.701-3.908 8.618-11.105 6.727-18.162-2.397-8.946-11.593-14.256-20.54-11.859l-14.374 3.851c7.026-1.882 14.665 3.844 17.062 12.79 1.891 7.057-.055 13.994-4.405 17.54 5.723 15.383 14.903 46.765 19.191 62.961 14.417 10.986 28.637 27.172 33.844 46.607l46.606 173.937c1.46 5.45-.826 10.797-5.106 11.945l19.449-5.211c5.451-1.459 8.686-7.061 7.225-12.511z" fill="#2aad52"/>
<path d="M388.415 419.269c-27.856 7.464-56.489-9.067-63.953-36.923l-8.3-30.976c-7.464-27.856 9.067-56.489 36.923-63.953 27.856-7.464 56.489 9.067 63.953 36.923l8.3 30.976c7.464 27.856-9.067 56.488-36.923 63.953z" fill="#d2f5ff"/>
<path d="M384.392 288.771l30.458 113.671c10.591-12.611 15.074-30.01 10.488-47.124l-8.301-30.979c-4.585-17.115-17.167-29.942-32.645-35.568z" fill="#9cc9d3"/>
<g><path d="M305.398 291.216H288.01c-10.356 0-18.751 8.395-18.751 18.751 0 10.356 8.395 18.751 18.751 18.751h17.388c10.356 0 18.751-8.395 18.751-18.751 0-10.355-8.395-18.751-18.751-18.751z" fill="#f7aa86"/>
<path d="M323.298 328.719H305.91c-10.356 0-18.751 8.395-18.751 18.751 0 10.356 8.395 18.751 18.751 18.751h17.388c10.356 0 18.751-8.395 18.751-18.751 0-10.356-8.395-18.751-18.751-18.751z" fill="#e88e6b"/>
<path d="M333.021 366.221h-17.388c-10.356 0-18.751 8.395-18.751 18.751 0 10.356 8.395 18.751 18.751 18.751h17.388c10.356 0 18.751-8.395 18.751-18.751 0-10.355-8.395-18.751-18.751-18.751z" fill="#fca"/>
<path d="M340.414 403.724h-17.388c-10.356 0-18.751 8.395-18.751 18.751 0 10.356 8.395 18.751 18.751 18.751h17.388c10.356 0 18.751-8.395 18.751-18.751 0-10.356-8.395-18.751-18.751-18.751z" fill="#e88e6b"/>
</g><path d="M402.38 262.19h-64.702c-1.172 0-2.123.95-2.123 2.123v6.446c0 17.544 14.23 31.766 31.773 31.766h19.529v16.888c0 25.852 20.957 46.809 46.809 46.809h15.073c6.467 0 11.71-5.243 11.71-11.71V320.26c.002-32.071-25.997-58.07-58.069-58.07z" fill="#fca"/>
<g><path d="M176.444 270.759v-6.446c0-1.172-.95-2.123-2.123-2.123H109.62c-32.071 0-58.07 25.999-58.07 58.07v34.251c0 6.467 5.243 11.71 11.71 11.71h15.073c25.852 0 46.809-20.957 46.809-46.809v-16.888h19.529c17.543 0 31.773-14.222 31.773-31.765z" fill="#d7875f"/>
<path d="M149.646 221.739c4.275-16.2 13.651-47.529 19.783-62.803-5.702-3.908-8.618-11.105-6.727-18.162 2.397-8.947 11.593-14.256 20.539-11.859l33.459 8.965c8.947 2.397 14.256 11.593 11.858 20.54-1.891 7.057-8.015 11.832-14.907 12.366-2.326 16.293-9.871 48.114-14.269 64.28 9.919 17.507 16.66 39.309 11.452 58.745l-46.606 173.937c-1.46 5.45-7.062 8.684-12.512 7.224l-80.743-21.635c-5.45-1.46-8.684-7.062-7.224-12.512l46.606-173.937c5.209-19.436 21.948-34.947 39.291-45.149z" fill="#75dc5e"/>
<path d="M216.701 137.88l-15.353-4.114c6.896 1.848 10.542 10.598 8.145 19.545-1.891 7.057-6.979 12.109-12.427 13.03-2.763 16.177-10.518 47.941-14.901 64.111 6.794 16.669 10.844 37.751 5.636 57.186l-46.606 173.937c-1.46 5.45-6.049 8.955-10.25 7.83l20.772 5.566c5.45 1.461 11.052-1.774 12.512-7.224l46.606-173.937c5.208-19.436-1.534-41.238-11.452-58.745 4.398-16.167 11.943-47.987 14.269-64.28 6.892-.534 13.016-5.309 14.907-12.365 2.397-8.947-2.912-18.143-11.858-20.54z" fill="#2aad52"/>
<path d="M123.585 419.269c27.856 7.464 56.489-9.067 63.953-36.923l8.3-30.976c7.464-27.856-9.067-56.489-36.923-63.953-27.856-7.464-56.489 9.067-63.953 36.923l-8.3 30.976c-7.464 27.856 9.067 56.488 36.923 63.953z" fill="#7f66ff"/>
<path d="M183.818 302.5l-31.124 116.156c14.534-4.564 26.789-15.392 32.775-30.18l11.643-43.453c2.21-15.798-2.989-31.303-13.294-42.523z" fill="#9cc9d3"/>
<path d="M223.99 328.719c10.356 0 18.751-8.396 18.751-18.751 0-10.356-8.395-18.751-18.751-18.751H97.087a23.272 23.272 0 00-14.84 5.318v-27.493c-18.108 9.698-30.473 28.713-30.687 50.641H7.5v93.184h33.022v2.732c0 14.154 11.474 25.628 25.629 25.628H188.974c10.356 0 18.751-8.395 18.751-18.751s-8.395-18.751-18.751-18.751h7.393c10.356 0 18.751-8.395 18.751-18.751 0-10.356-8.395-18.751-18.751-18.751h9.723c10.356 0 18.751-8.395 18.751-18.751s-8.395-18.751-18.751-18.751H223.99z" fill="#d7875f"/>
<path d="M188.524 421.077H84.381c-14.154 0-25.629-11.474-25.629-25.629a2.732 2.732 0 00-2.732-2.732H7.5v20.149h33.022v2.732c0 14.154 11.474 25.629 25.629 25.629H188.974c10.356 0 18.751-8.395 18.751-18.751 0-3.739-1.107-7.215-2.993-10.14-3.442 5.276-9.487 8.742-16.208 8.742z" fill="#b05a3d"/>
</g><g><path d="M504.5 397.625h-33.02a7.499 7.499 0 00-7.5 7.5v2.73c0 7.225-4.171 13.467-10.338 16.377l-15.611-58.253h10.709c4.143 0 7.5-3.357 7.5-7.5s-3.357-7.5-7.5-7.5h-15.072c-1.887 0-3.74-.142-5.557-.4l-.015-.002c-19.045-2.715-33.738-19.124-33.738-38.908v-16.888c0-4.143-3.357-7.5-7.5-7.5h-19.529c-13.385 0-24.273-10.886-24.273-24.266v-1.068h59.325c9.936 0 19.548 2.877 27.8 8.318a7.5 7.5 0 108.258-12.522c-9.957-6.567-21.436-10.251-33.352-10.737-6.705-14.144-19.349-27.38-36.27-37.869-2.238-8.281-5.334-18.901-8.493-29.115-2.449-7.897-5.805-18.336-8.917-26.741 5.204-5.993 7.254-14.3 5.138-22.19-2.844-10.597-12.476-17.997-23.424-17.997-2.104 0-4.222.28-6.301.835l-33.462 8.961a24.122 24.122 0 00-14.739 11.312c-3.242 5.616-4.102 12.156-2.426 18.4a23.986 23.986 0 008.094 12.519 24.324 24.324 0 007.453 4.151c.683 4.007 1.585 8.72 2.697 14.084.842 4.058 4.82 6.664 8.866 5.821a7.499 7.499 0 005.821-8.866c-1.571-7.577-2.698-13.741-3.349-18.323a7.503 7.503 0 00-6.842-6.422c-10.317-.807-11.729-15.499-1.693-18.188l33.453-8.959c5.05-1.351 10.067 1.729 11.362 6.557 1.013 3.776-.485 7.809-3.729 10.033a7.5 7.5 0 00-2.716 8.98c2.679 6.668 6.27 17.206 10.384 30.47 3.486 11.274 6.889 23.028 9.101 31.441a7.509 7.509 0 003.454 4.56c8.016 4.71 21.034 13.728 29.369 26.486h-50.24c-5.307 0-9.623 4.316-9.623 9.622v6.446a39.008 39.008 0 004.436 18.094 60.013 60.013 0 00-6.327 5.085c-4.49-5.804-11.351-9.681-19.121-10.165a51.605 51.605 0 01-.184-4.197c0-15.805 6.681-30.918 12.286-40.813a7.504 7.504 0 00.71-5.667c-1.317-4.838-2.872-10.917-4.378-17.119a7.501 7.501 0 00-14.577 3.539 730.228 730.228 0 003.69 14.579c-6.126 11.439-12.732 27.861-12.732 45.481 0 1.395.057 2.772.142 4.14h-3.992c-14.475 0-26.251 11.776-26.251 26.251 0 12.582 8.9 23.121 20.733 25.663a26.083 26.083 0 00-2.833 11.839c0 10.044 5.673 18.785 13.98 23.198a26.09 26.09 0 00-4.257 14.305c0 9.356 4.924 17.58 12.314 22.23a26.098 26.098 0 00-4.92 15.272c0 14.476 11.776 26.252 26.251 26.252h11.882l5.617 20.962c2.118 7.904 9.294 13.13 17.115 13.129 1.513 0 3.051-.195 4.58-.605l80.75-21.631c6.604-1.769 11.325-7.072 12.704-13.329a32.932 32.932 0 0022.97-26.885H504.5c4.143 0 7.5-3.357 7.5-7.5s-3.357-7.497-7.5-7.497zm-172.852-95.407a44.852 44.852 0 0110.2-9.357c6.865 5.867 15.763 9.422 25.48 9.422h12.029v9.388c0 25.052 17.055 46.186 40.161 52.428-1.27 18.796-14.457 35.202-33.052 40.183a44.487 44.487 0 01-21.833.333 26.406 26.406 0 00-10.282-12.111 26.101 26.101 0 004.92-15.273c0-10.044-5.673-18.785-13.981-23.197a26.092 26.092 0 004.257-14.306c0-12.582-8.9-23.121-20.733-25.663a26.083 26.083 0 002.833-11.839l.001-.008zm-43.638 11.259c-6.204 0-11.251-5.047-11.251-11.251s5.047-11.251 11.251-11.251h12.498c.011 0 .022.003.034.003l.055-.003h4.8c6.204 0 11.251 5.047 11.251 11.251s-5.047 11.251-11.251 11.251H288.01zm6.649 26.251c0-6.204 5.047-11.251 11.251-11.251h17.388c6.204 0 11.251 5.047 11.251 11.251s-5.047 11.252-11.251 11.252H305.91c-6.204 0-11.251-5.048-11.251-11.252zm9.723 37.503c0-6.204 5.047-11.251 11.251-11.251h17.389c6.204 0 11.251 5.047 11.251 11.251s-5.047 11.251-11.251 11.251h-17.389c-6.204 0-11.251-5.047-11.251-11.251zm36.045 48.753l-.061.001h-17.34c-6.204 0-11.251-5.048-11.251-11.252s5.047-11.251 11.251-11.251h17.388c6.204 0 11.251 5.047 11.251 11.251 0 6.199-5.04 11.244-11.238 11.251zm98.663 12.367l-80.75 21.631a2.72 2.72 0 01-3.326-1.918l-5.06-18.881c8.135-3.185 14.305-10.312 16.144-19.023 2.903.434 5.829.66 8.761.659 5.191 0 10.396-.682 15.492-2.049 16.935-4.536 30.508-16.176 37.969-31.084l12.687 47.34a2.72 2.72 0 01-1.917 3.325z"/>
<path d="M452.95 323.747c0 4.143 3.357 7.5 7.5 7.5s7.5-3.357 7.5-7.5v-4.312h36.55c4.143 0 7.5-3.357 7.5-7.5s-3.357-7.5-7.5-7.5h-37.054c-.963-7.749-3.297-15.305-6.894-22.202a7.5 7.5 0 00-13.301 6.935c7.826 15.005 5.165 26.959 5.699 34.579zM223.99 275.975h-3.992c.084-1.368.142-2.745.142-4.14 0-17.62-6.606-34.043-12.733-45.481 4.121-15.54 10.073-40.799 12.853-57.079a24.357 24.357 0 007.455-4.152 23.973 23.973 0 008.089-12.502c1.681-6.261.821-12.801-2.421-18.417a24.125 24.125 0 00-14.741-11.313l-33.467-8.961a24.383 24.383 0 00-6.294-.834c-10.948 0-20.58 7.4-23.424 17.998-2.116 7.89-.066 16.196 5.137 22.189-1.362 3.678-2.866 7.996-4.492 12.904a7.499 7.499 0 004.761 9.478c3.928 1.306 8.175-.828 9.478-4.76 2.315-6.989 4.352-12.68 6.052-16.916a7.5 7.5 0 00-2.718-8.978c-3.243-2.225-4.741-6.257-3.729-10.032 1.087-4.053 4.762-6.884 8.936-6.884.799 0 1.615.109 2.42.325l33.458 8.959c10.016 2.685 8.625 17.382-1.691 18.188a7.5 7.5 0 00-6.841 6.42c-2.236 15.7-9.746 47.435-14.082 63.368a7.497 7.497 0 00.71 5.666c5.605 9.896 12.286 25.009 12.286 40.813 0 1.405-.07 2.782-.179 4.14h-34.376a59.515 59.515 0 00-9.729-3.545 60.053 60.053 0 00-15.485-2.044c-8.618 0-17.247 1.943-25.097 5.589h-6.658l3.991-14.891c.33-1.235.715-2.446 1.145-3.634.088-.2.165-.406.235-.615 6.768-17.893 24.191-30.333 34.466-36.373a7.502 7.502 0 003.447-4.539 699.525 699.525 0 014.81-17.16 7.5 7.5 0 00-5.092-9.305 7.496 7.496 0 00-9.305 5.092 756.25 756.25 0 00-4.124 14.591c-11.296 7.02-27.739 19.699-36.319 37.884-32.624 1.333-58.456 26.185-62.315 57.416H7.5c-4.143 0-7.5 3.357-7.5 7.5s3.357 7.5 7.5 7.5h44.06a7.501 7.501 0 007.5-7.427c.186-19.09 10.958-35.655 26.728-44.102.1-.053.191-.116.287-.173a50.007 50.007 0 0115.602-5.161l-3.59 13.397h-.999a7.5 7.5 0 00-7.5 7.5 7.5 7.5 0 007.5 7.5l114.314.001.057.003c.012 0 .023-.003.035-.003h12.497c6.204 0 11.251 5.047 11.251 11.251s-5.047 11.251-11.251 11.251h-17.9c-4.143 0-7.5 3.357-7.5 7.5s3.357 7.5 7.5 7.5c6.204 0 11.251 5.047 11.251 11.251s-5.047 11.251-11.251 11.251h-9.724c-4.143 0-7.5 3.357-7.5 7.5s3.357 7.5 7.5 7.5c6.204 0 11.252 5.048 11.252 11.252s-5.048 11.251-11.252 11.251h-7.393c-4.143 0-7.5 3.357-7.5 7.5s3.357 7.5 7.5 7.5c6.204 0 11.251 5.047 11.251 11.251s-5.047 11.252-11.251 11.252H66.151c-9.996 0-18.129-8.133-18.129-18.129v-2.731c0-4.143-3.357-7.5-7.5-7.5H7.5c-4.143 0-7.5 3.357-7.5 7.5s3.357 7.5 7.5 7.5h25.864c1.841 12.715 10.933 23.107 22.931 26.855 1.342 6.291 6.063 11.568 12.734 13.36 83.47 22.144 81.011 22.236 85.33 22.236 7.82 0 14.997-5.226 17.115-13.128l5.62-20.963h11.879c14.475 0 26.251-11.776 26.251-26.252 0-5.691-1.82-10.966-4.91-15.271 7.387-4.65 12.304-12.877 12.304-22.231a26.1 26.1 0 00-4.249-14.305c8.305-4.414 13.972-13.156 13.972-23.198 0-4.256-1.018-8.278-2.823-11.837 11.829-2.545 20.724-13.086 20.724-25.665-.001-14.475-11.777-26.251-26.252-26.251zm-67.004 182.089a2.72 2.72 0 01-3.326 1.918l-70.917-18.997h78.821l-4.578 17.079zM263.5 44.178c0-4.143-3.357-7.5-7.5-7.5s-7.5 3.357-7.5 7.5v30.641c0 4.143 3.357 7.5 7.5 7.5s7.5-3.357 7.5-7.5V44.178zM224.521 87.337a7.485 7.485 0 005.849 2.799 7.5 7.5 0 005.839-12.201L214.858 51.4a7.5 7.5 0 10-11.688 9.402l21.351 26.535zM276.935 88.48a7.471 7.471 0 004.696 1.656 7.488 7.488 0 005.849-2.799l21.35-26.535a7.5 7.5 0 00-11.688-9.402l-21.35 26.535a7.5 7.5 0 001.143 10.545z"/>
</g></svg>