<svg id="Capa_1" enable-background="new 0 0 512 512" height="512" viewBox="0 0 512 512" width="512" xmlns="http://www.w3.org/2000/svg"><g><g><path d="m457.146 140.298c-26.15 0-47.351 21.201-47.351 47.351v66.257c-6.533-1.162-13.255-1.763-20.119-1.763-63.322 0-114.83 51.509-114.83 114.821s51.509 114.821 114.83 114.821c14.628 0 28.615-2.755 41.5-7.765 7.454 4.909 16.371 7.765 25.97 7.765 26.15 0 47.351-21.201 47.351-47.351v-246.785c0-26.151-21.2-47.351-47.351-47.351zm-67.469 246.784c-11.101 0-20.129-9.027-20.129-20.119s9.027-20.119 20.129-20.119c11.091 0 20.119 9.027 20.119 20.119s-9.028 20.119-20.119 20.119z" fill="#fea613"/></g><g><path d="m457.146 140.298c-5.26 0-10.32.862-15.049 2.445 18.766 6.292 32.292 24.016 32.292 44.906v246.784c0 20.88-13.516 38.604-32.282 44.906 4.719 1.583 9.779 2.445 15.039 2.445 26.15 0 47.351-21.201 47.351-47.351v-246.784c0-26.151-21.2-47.351-47.351-47.351z" fill="#fb8801"/></g><g><path d="m301.525 101.558c-16.824-22.508-37.589-40.081-61.715-52.232-25.183-12.683-53.404-19.113-83.881-19.113h-101.073c-12.574 0-24.632 5.001-33.514 13.9-8.883 8.9-13.861 20.967-13.838 33.541 0 .027 0 .129.001.263 0 .006-.001.012-.001.019v350.703c0 3.004.292 5.939.827 8.788.729 11.528 5.645 22.432 13.889 30.615 8.871 8.806 20.863 13.745 33.359 13.745.06 0 .119 0 .179-.001 3.054-.012 75.142-.289 103.955-.792 55.791-.975 105.443-26.213 139.807-71.064 30.873-40.293 47.875-94.96 47.875-153.93.001-60.893-15.861-114.298-45.87-154.442zm-77.177 250.774c-16.911 22.07-39.214 33.5-66.289 33.973-12.753.223-34.853.403-55.288.534-.134-42.104-.305-101.431-.305-131.232 0-24.97-.098-86.89-.175-130.691h53.637c30.159 0 52.972 10.907 69.744 33.343 17.424 23.309 27.02 58.021 27.02 97.741.001 38.265-10.066 72.476-28.344 96.332z" fill="#8379c1"/></g><g><path d="m301.527 101.563c-16.822-22.513-37.592-40.087-61.718-52.24-25.178-12.674-53.403-19.107-83.881-19.107h-30.098c30.468 0 58.693 6.432 83.881 19.107 24.126 12.153 44.886 29.727 61.709 52.24 30.008 40.137 45.878 93.54 45.878 154.437 0 58.973-17.003 113.638-47.882 153.926-34.366 44.856-84.011 70.095-139.809 71.067-18.005.311-52.912.541-77.309.671 1.082.08 2.174.12 3.276.12h.18c3.056-.01 75.144-.29 103.96-.791 55.787-.972 105.443-26.21 139.809-71.067 30.869-40.287 47.872-94.952 47.872-153.926.001-60.897-15.86-114.3-45.868-154.437z" fill="#6e61b6"/></g><g><path d="m389.672 339.339c-15.232 0-27.624 12.392-27.624 27.625s12.392 27.625 27.624 27.625 27.625-12.392 27.625-27.625-12.392-27.625-27.625-27.625zm0 40.24c-6.955 0-12.614-5.659-12.614-12.616 0-6.956 5.659-12.616 12.614-12.616 6.957 0 12.615 5.659 12.615 12.616.001 6.957-5.658 12.616-12.615 12.616z"/><path d="m504.495 233.446c4.145 0 7.505-3.36 7.505-7.505v-38.29c0-30.248-24.608-54.856-54.856-54.856s-54.856 24.609-54.856 54.856v57.633c-4.188-.431-8.406-.649-12.615-.649-12.097 0-23.788 1.768-34.831 5.054-1.068-59.911-17.366-112.574-47.306-152.625-17.524-23.446-39.175-41.763-64.35-54.441-26.24-13.215-55.597-19.916-87.257-19.916h-101.073c-14.672 0-28.461 5.719-38.826 16.104-10.364 10.386-16.057 24.185-16.03 38.843l.001.185c-.001.033-.001.065-.001.097v350.702c0 3.221.293 6.489.873 9.721.95 13.242 6.642 25.659 16.062 35.009 10.345 10.268 24.07 15.923 38.646 15.923l.206-.001c.744-.003 74.639-.279 104.058-.792 49.164-.86 93.741-19.797 127.974-53.876 21.944 32.927 59.403 54.669 101.853 54.669 13.973 0 27.65-2.344 40.713-6.971 8.16 4.572 17.334 6.971 26.759 6.971 30.248 0 54.856-24.608 54.856-54.856v-173.759c0-4.145-3.359-7.505-7.505-7.505s-7.505 3.36-7.505 7.505v173.759c0 21.972-17.875 39.847-39.847 39.847-7.794 0-15.349-2.258-21.849-6.531-2.029-1.333-4.58-1.604-6.842-.723-12.373 4.813-25.42 7.253-38.78 7.253-38.538 0-72.386-20.426-91.314-51.014 2.437-2.84 4.813-5.762 7.12-8.773 30.197-39.41 47.528-92.013 49.267-148.982 10.957-3.784 22.7-5.868 34.927-5.868 6.306 0 12.634.556 18.809 1.651 2.188.385 4.431-.212 6.132-1.638s2.684-3.532 2.684-5.751v-66.255c0-21.972 17.875-39.847 39.847-39.847s39.847 17.875 39.847 39.847v38.29c0 4.146 3.359 7.505 7.504 7.505zm-210.931 171.92c-32.944 42.997-80.526 67.19-133.981 68.125-29.318.512-103.11.788-103.851.791-.031 0-.12 0-.151.001-10.588 0-20.558-4.108-28.073-11.567-6.918-6.868-11.069-16.018-11.686-25.763-.02-.305-.058-.609-.114-.909-.463-2.469-.698-4.96-.698-7.404v-350.607c.001-.057.001-.115.001-.171l-.001-.222c-.02-10.657 4.116-20.682 11.645-28.225s17.544-11.698 28.202-11.698h101.072c29.293 0 56.38 6.161 80.506 18.312 23.081 11.624 42.958 28.454 59.08 50.022 29.032 38.837 44.377 90.688 44.377 149.949 0 57.33-16.453 110.376-46.328 149.366z"/><path d="m155.928 117.411h-53.637c-1.992 0-3.904.792-5.311 2.203-1.408 1.411-2.198 3.322-2.194 5.315.065 37.538.175 104.431.175 130.678 0 29.223.166 87.507.305 131.256.007 1.994.806 3.904 2.224 5.308 1.405 1.392 3.303 2.173 5.281 2.173h.048c25.968-.167 44.598-.346 55.371-.535 12.274-.214 23.822-2.555 34.323-6.958 3.823-1.603 5.623-6 4.02-9.822-1.604-3.823-6.001-5.623-9.823-4.019-8.737 3.663-18.421 5.611-28.782 5.792-9.65.169-25.668.331-47.676.483-.134-42.687-.281-96.121-.281-123.678 0-24.585-.096-84.798-.162-123.187h46.119c27.628 0 48.476 9.922 63.734 30.332 16.461 22.022 25.527 55.138 25.527 93.248 0 36.623-9.517 69.214-26.799 91.768-1.841 2.404-3.778 4.701-5.756 6.829-2.822 3.036-2.649 7.785.387 10.606 3.035 2.822 7.784 2.649 10.606-.387 2.301-2.475 4.548-5.14 6.677-7.92 19.278-25.159 29.894-60.991 29.894-100.896 0-41.328-10.126-77.635-28.515-102.235-18.287-24.462-43.066-36.354-75.755-36.354z"/></g></g></svg>