<svg xmlns="http://www.w3.org/2000/svg" width="512" height="512"><path d="M410.445 9.072c-13.466-4.901-28.355 2.042-33.257 15.508l-31.048 85.304H177.926v70.572l-61.941-51.975c-12-10.069-29.889-8.503-39.957 3.496-10.069 11.999-8.504 29.889 3.496 39.958l98.402 82.569v2.178c0 13.02 8.115 24.138 19.559 28.594V504.5h159.353V287.364h3.081c16.945 0 30.682-13.737 30.682-30.682V139.46l35.353-97.131c4.9-13.467-2.043-28.356-15.509-33.257z" fill="#f2a077"/><path d="M410.445 9.072c-7.125-2.593-14.647-1.869-20.878 1.381 11.382 5.918 16.892 19.495 12.386 31.876L366.6 139.46v117.222c0 16.945-13.737 30.682-30.682 30.682h-3.081V504.5h24V287.363h3.081c16.945 0 30.682-13.736 30.682-30.682V139.46l35.353-97.131c4.901-13.467-2.042-28.356-15.508-33.257z" fill="#d6774d"/><path d="M189.027 394.607h176.277c7.933 0 14.364-6.431 14.364-14.364v-37.952c0-7.933-6.431-14.364-14.364-14.364H189.027c-7.933 0-14.364 6.431-14.364 14.364v37.952c0 7.933 6.431 14.364 14.364 14.364z" fill="#7f66ff"/><path fill="#ebeae6" d="M313.978 323.595l47.084 66.683-12.253 8.652-47.084-66.683zM258.595 323.592l47.084 66.684-12.253 8.652-47.085-66.684zM203.21 323.59l47.084 66.684-12.253 8.652-47.084-66.684z"/><path d="M206.074 51.778c-15.546 0-28.148 12.602-28.148 28.148v52.778c0 15.546 12.602 28.148 28.148 28.148s28.148-12.602 28.148-28.148V79.926c0-15.547-12.602-28.148-28.148-28.148z" fill="#f7aa86"/><path d="M262.37 51.778c-15.546 0-28.148 12.602-28.148 28.148v52.778c0 15.546 12.602 28.148 28.148 28.148s28.148-12.602 28.148-28.148V79.926c0-15.547-12.602-28.148-28.148-28.148z" fill="#fca"/><path d="M318.666 51.778c-15.546 0-28.148 12.602-28.148 28.148v52.778c0 15.546 12.602 28.148 28.148 28.148s28.148-12.602 28.148-28.148V79.926c0-15.547-12.602-28.148-28.148-28.148zM177.926 256.682c0 10.247 5.039 19.3 12.758 24.871h58.028c15.714 0 28.453-12.739 28.453-28.453 0-37.256-30.202-67.459-67.459-67.459h-25.603l-6.179-5.185-61.941-51.975c-12-10.069-29.889-8.503-39.957 3.496-10.069 11.999-8.504 29.889 3.496 39.958l98.402 82.569v2.178z" fill="#f7aa86"/><g><path d="M442.611 353.768h-55.442v-11.477c0-12.056-9.808-21.864-21.864-21.864h-.963v-25.82c18.979-2.197 33.76-18.368 33.76-37.927v-70.59c0-4.143-3.358-7.5-7.5-7.5s-7.5 3.357-7.5 7.5v70.59c0 12.782-10.398 23.181-23.18 23.181h-3.08a7.5 7.5 0 00-7.5 7.5v33.066h-144.36v-31.374h7c4.142 0 7.5-3.357 7.5-7.5s-3.358-7.5-7.5-7.5h-18.685a23.282 23.282 0 01-7.699-14.617c-.019-.159-.039-.317-.054-.478a23.511 23.511 0 01-.069-.839 23 23 0 01-.038-1.02c-.003-.139-.011-.277-.011-.417v-2.178c0-.425-.047-.843-.117-1.255-.017-.1-.029-.201-.05-.3-.027-.126-.063-.25-.096-.375-.035-.131-.068-.262-.109-.39-.036-.11-.078-.217-.119-.326a7.91 7.91 0 00-.162-.404c-.046-.103-.096-.203-.146-.304a7.968 7.968 0 00-.382-.675 7.031 7.031 0 00-.248-.363c-.065-.09-.13-.18-.2-.267a6.748 6.748 0 00-.302-.352c-.068-.076-.134-.153-.205-.226a7.449 7.449 0 00-.43-.403c-.039-.034-.073-.072-.113-.105l-.046-.039-.015-.013-39.069-32.783a7.498 7.498 0 00-10.566.924 7.5 7.5 0 00.924 10.566l36.475 30.606c.006.176.025.351.034.527.022.47.052.939.091 1.405.019.222.044.443.067.665 1.263 12.456 8.445 23.356 19.34 29.407v30.401h-.954c-12.056 0-21.864 9.809-21.864 21.864v37.952c0 12.056 9.808 21.864 21.864 21.864h.954V504.5c0 4.143 3.358 7.5 7.5 7.5s7.5-3.357 7.5-7.5V402.107h144.36V504.5c0 4.143 3.358 7.5 7.5 7.5s7.5-3.357 7.5-7.5V402.107h.963c3.802 0 7.38-.978 10.497-2.691l33.028 33.028c1.464 1.464 3.384 2.196 5.303 2.196s3.839-.732 5.303-2.196a7.5 7.5 0 000-10.607l-33.734-33.734a21.738 21.738 0 001.467-7.859v-11.476h55.442c4.142 0 7.5-3.357 7.5-7.5s-3.358-7.5-7.5-7.5zm-253.584 33.339a6.872 6.872 0 01-6.864-6.864v-37.952a6.872 6.872 0 016.864-6.864h8.396c.02 0 .038.003.058.003s.038-.003.058-.003h159.244c.02 0 .038.003.058.003s.038-.003.058-.003h8.405a6.872 6.872 0 016.864 6.864v37.952a6.872 6.872 0 01-6.864 6.864H189.027z"/><path d="M120.637 196.643L84.345 166.19a20.727 20.727 0 01-7.373-14.163 20.725 20.725 0 014.801-15.229c7.395-8.813 20.581-9.967 29.392-2.572l61.87 51.917c.067.058.135.116.204.171l6.045 5.072a7.498 7.498 0 004.821 1.755h25.603c33.061 0 59.958 26.897 59.958 59.958 0 4.143 3.358 7.5 7.5 7.5s7.5-3.357 7.5-7.5c0-41.332-33.626-74.958-74.958-74.958h-22.873l-1.414-1.186v-15.223a35.443 35.443 0 0020.653 6.62c11.434 0 21.62-5.417 28.148-13.813 6.528 8.396 16.714 13.813 28.148 13.813 11.434 0 21.62-5.417 28.148-13.813 6.528 8.396 16.714 13.813 28.148 13.813 19.656 0 35.648-15.992 35.648-35.648v-23.349l29.926-82.212C386.879 19.879 393.844 15 401.571 15c2.153 0 4.271.375 6.307 1.118a18.32 18.32 0 0110.41 9.537 18.339 18.339 0 01.616 14.109l-35.35 97.13a7.503 7.503 0 00-.452 2.565v16.63c0 4.143 3.358 7.5 7.5 7.5s7.5-3.357 7.5-7.5v-15.308L433 44.894c3.055-8.396 2.658-17.48-1.117-25.576-3.776-8.099-10.48-14.241-18.868-17.292A33.259 33.259 0 00401.571 0c-14.013 0-26.643 8.849-31.428 22.015L352.8 69.66c-4.42-14.667-18.047-25.382-34.134-25.382-11.434 0-21.621 5.417-28.148 13.813-6.528-8.396-16.714-13.813-28.148-13.813-11.434 0-21.62 5.417-28.148 13.813-6.528-8.396-16.714-13.813-28.148-13.813-19.656 0-35.648 15.992-35.648 35.648v29.867c0 .029-.004.058-.004.087v54.488l-49.615-41.632c-15.147-12.711-37.813-10.728-50.523 4.42-6.158 7.338-9.089 16.635-8.254 26.178.835 9.543 5.336 18.189 12.674 24.347l36.292 30.453a7.5 7.5 0 109.641-11.491zM318.666 59.277c11.385 0 20.648 9.263 20.648 20.648v52.777c0 11.386-9.263 20.648-20.648 20.648-11.386 0-20.648-9.263-20.648-20.648V79.926c0-11.386 9.263-20.649 20.648-20.649zm-56.296 0c11.385 0 20.648 9.263 20.648 20.648v52.777c0 11.386-9.263 20.648-20.648 20.648s-20.648-9.263-20.648-20.648V79.926c0-11.386 9.263-20.649 20.648-20.649zm-76.944 20.649c0-11.386 9.263-20.648 20.648-20.648s20.648 9.263 20.648 20.648v52.777c0 11.386-9.263 20.648-20.648 20.648s-20.648-9.263-20.648-20.648V79.926z"/></g></svg>